<?xml version="1.0" encoding="UTF-8" standalone="no"?>
<!DOCTYPE svg PUBLIC "-//W3C//DTD SVG 1.1//EN"
 "http://www.w3.org/Graphics/SVG/1.1/DTD/svg11.dtd">
<!-- Generated by graphviz version 2.40.1 (20161225.0304)
 -->
<!-- Title: G Pages: 1 -->
<svg width="520pt" height="764pt"
 viewBox="0.00 0.00 519.70 764.00" xmlns="http://www.w3.org/2000/svg" xmlns:xlink="http://www.w3.org/1999/xlink">
<g id="graph0" class="graph" transform="scale(1 1) rotate(0) translate(4 760)">
<title>G</title>
<polygon fill="#ffffff" stroke="transparent" points="-4,4 -4,-760 515.6956,-760 515.6956,4 -4,4"/>
<!-- Verify -->
<g id="node1" class="node">
<title>Verify</title>
<polygon fill="#d3d3d3" stroke="#000000" points="381.2068,-756 327.2068,-756 327.2068,-720 381.2068,-720 381.2068,-756"/>
<text text-anchor="middle" x="354.2068" y="-733.8" font-family="Times,serif" font-size="14.00" fill="#000000">Verify</text>
</g>
<!-- Namer -->
<g id="node2" class="node">
<title>Namer</title>
<polygon fill="#add8e6" stroke="#add8e6" points="177.2939,-684 123.1197,-684 123.1197,-648 177.2939,-648 177.2939,-684"/>
<text text-anchor="middle" x="150.2068" y="-661.8" font-family="Times,serif" font-size="14.00" fill="#000000">Namer</text>
</g>
<!-- Verify&#45;&gt;Namer -->
<g id="edge1" class="edge">
<title>Verify&#45;&gt;Namer</title>
<path fill="none" stroke="#000000" d="M327.1172,-728.439C291.0714,-715.7169 227.2089,-693.1772 186.8763,-678.9422"/>
<polygon fill="#000000" stroke="#000000" points="188.0033,-675.6284 177.4085,-675.6006 185.6735,-682.2293 188.0033,-675.6284"/>
</g>
<!-- Writer -->
<g id="node3" class="node">
<title>Writer</title>
<polygon fill="#add8e6" stroke="#add8e6" points="341.2068,-684 287.2068,-684 287.2068,-648 341.2068,-648 341.2068,-684"/>
<text text-anchor="middle" x="314.2068" y="-661.8" font-family="Times,serif" font-size="14.00" fill="#000000">Writer</text>
</g>
<!-- Verify&#45;&gt;Writer -->
<g id="edge2" class="edge">
<title>Verify&#45;&gt;Writer</title>
<path fill="none" stroke="#000000" d="M344.1131,-719.8314C339.6471,-711.7925 334.2993,-702.1666 329.3689,-693.2918"/>
<polygon fill="#000000" stroke="#000000" points="332.3524,-691.4551 324.4364,-684.4133 326.2333,-694.8546 332.3524,-691.4551"/>
</g>
<!-- Approver -->
<g id="node4" class="node">
<title>Approver</title>
<polygon fill="none" stroke="#add8e6" stroke-width="2" points="428.8501,-684 359.5635,-684 359.5635,-648 428.8501,-648 428.8501,-684"/>
<text text-anchor="middle" x="394.2068" y="-661.8" font-family="Times,serif" font-size="14.00" fill="#000000">Approver</text>
</g>
<!-- Verify&#45;&gt;Approver -->
<g id="edge3" class="edge">
<title>Verify&#45;&gt;Approver</title>
<path fill="none" stroke="#000000" d="M364.3005,-719.8314C368.7665,-711.7925 374.1143,-702.1666 379.0447,-693.2918"/>
<polygon fill="#000000" stroke="#000000" points="382.1803,-694.8546 383.9772,-684.4133 376.0612,-691.4551 382.1803,-694.8546"/>
</g>
<!-- Reporter -->
<g id="node5" class="node">
<title>Reporter</title>
<polygon fill="#add8e6" stroke="#add8e6" points="511.6844,-684 446.7292,-684 446.7292,-648 511.6844,-648 511.6844,-684"/>
<text text-anchor="middle" x="479.2068" y="-661.8" font-family="Times,serif" font-size="14.00" fill="#000000">Reporter</text>
</g>
<!-- Verify&#45;&gt;Reporter -->
<g id="edge4" class="edge">
<title>Verify&#45;&gt;Reporter</title>
<path fill="none" stroke="#000000" d="M381.3299,-722.3771C398.1903,-712.6655 420.1723,-700.0039 439.0318,-689.1408"/>
<polygon fill="#000000" stroke="#000000" points="440.8062,-692.1579 447.7246,-684.1338 437.3123,-686.0922 440.8062,-692.1579"/>
</g>
<!-- BaseName -->
<g id="node6" class="node">
<title>BaseName</title>
<polygon fill="#d3d3d3" stroke="#000000" points="188.3445,-612 112.0691,-612 112.0691,-576 188.3445,-576 188.3445,-612"/>
<text text-anchor="middle" x="150.2068" y="-589.8" font-family="Times,serif" font-size="14.00" fill="#000000">BaseName</text>
</g>
<!-- Namer&#45;&gt;BaseName -->
<g id="edge5" class="edge">
<title>Namer&#45;&gt;BaseName</title>
<path fill="none" stroke="#000000" d="M144.2544,-647.8314C143.504,-640.131 143.2831,-630.9743 143.5917,-622.4166"/>
<polygon fill="#000000" stroke="#000000" points="147.086,-622.6161 144.2308,-612.4133 140.1003,-622.1697 147.086,-622.6161"/>
</g>
<!-- Namer&#45;&gt;BaseName -->
<!-- Writer1 -->
<g id="node8" class="node">
<title>Writer1</title>
<polygon fill="#add8e6" stroke="#add8e6" points="177.2068,-540 123.2068,-540 123.2068,-504 177.2068,-504 177.2068,-540"/>
<text text-anchor="middle" x="150.2068" y="-517.8" font-family="Times,serif" font-size="14.00" fill="#000000">Writer</text>
</g>
<!-- Writer&#45;&gt;Writer1 -->
<g id="edge17" class="edge">
<title>Writer&#45;&gt;Writer1</title>
<path fill="none" stroke="#c0c0c0" stroke-dasharray="5,2" d="M330.9902,-647.9455C346.848,-628.6331 365.9097,-597.8394 349.2068,-576 329.675,-550.4618 239.5795,-534.1762 187.5598,-526.732"/>
<polygon fill="#c0c0c0" stroke="#c0c0c0" points="187.7724,-523.228 177.386,-525.3192 186.8095,-530.1615 187.7724,-523.228"/>
</g>
<!-- Approver1 -->
<g id="node11" class="node">
<title>Approver1</title>
<polygon fill="none" stroke="#add8e6" stroke-width="2" points="184.8501,-324 115.5635,-324 115.5635,-288 184.8501,-288 184.8501,-324"/>
<text text-anchor="middle" x="150.2068" y="-301.8" font-family="Times,serif" font-size="14.00" fill="#000000">Approver</text>
</g>
<!-- Approver&#45;&gt;Approver1 -->
<g id="edge18" class="edge">
<title>Approver&#45;&gt;Approver1</title>
<path fill="none" stroke="#c0c0c0" stroke-dasharray="5,2" d="M396.6932,-647.855C400.2081,-620.5902 406.2068,-567.4068 406.2068,-522 406.2068,-522 406.2068,-522 406.2068,-450 406.2068,-354.3738 268.8376,-321.5753 195.353,-310.8712"/>
<polygon fill="#c0c0c0" stroke="#c0c0c0" points="195.3821,-307.3423 184.9985,-309.4474 194.4285,-314.2771 195.3821,-307.3423"/>
</g>
<!-- Reporter1 -->
<g id="node17" class="node">
<title>Reporter1</title>
<polygon fill="#add8e6" stroke="#add8e6" points="182.6844,-108 117.7292,-108 117.7292,-72 182.6844,-72 182.6844,-108"/>
<text text-anchor="middle" x="150.2068" y="-85.8" font-family="Times,serif" font-size="14.00" fill="#000000">Reporter</text>
</g>
<!-- Reporter&#45;&gt;Reporter1 -->
<g id="edge19" class="edge">
<title>Reporter&#45;&gt;Reporter1</title>
<path fill="none" stroke="#c0c0c0" stroke-dasharray="5,2" d="M476.7204,-647.855C473.2055,-620.5902 467.2068,-567.4068 467.2068,-522 467.2068,-522 467.2068,-522 467.2068,-234 467.2068,-174.4017 279.1194,-121.1782 192.7056,-99.8705"/>
<polygon fill="#c0c0c0" stroke="#c0c0c0" points="193.4817,-96.4572 182.9374,-97.4912 191.825,-103.2584 193.4817,-96.4572"/>
</g>
<!-- TestFile.TestMethod -->
<g id="node7" class="node">
<title>TestFile.TestMethod</title>
<polygon fill="#d3d3d3" stroke="#000000" points="339.7398,-612 206.6738,-612 206.6738,-576 339.7398,-576 339.7398,-612"/>
<text text-anchor="middle" x="273.2068" y="-589.8" font-family="Times,serif" font-size="14.00" fill="#000000">TestFile.TestMethod</text>
</g>
<!-- BaseName&#45;&gt;TestFile.TestMethod -->
<g id="edge6" class="edge">
<title>BaseName&#45;&gt;TestFile.TestMethod</title>
<path fill="none" stroke="#000000" d="M188.6443,-594C191.2456,-594 193.8469,-594 196.4482,-594"/>
<polygon fill="#000000" stroke="#000000" points="196.4817,-597.5001 206.4817,-594 196.4817,-590.5001 196.4817,-597.5001"/>
</g>
<!-- BaseName&#45;&gt;Writer1 -->
<g id="edge7" class="edge">
<title>BaseName&#45;&gt;Writer1</title>
<path fill="none" stroke="#000000" d="M144.2544,-575.8314C143.504,-568.131 143.2831,-558.9743 143.5917,-550.4166"/>
<polygon fill="#000000" stroke="#000000" points="147.086,-550.6161 144.2308,-540.4133 140.1003,-550.1697 147.086,-550.6161"/>
</g>
<!-- BaseName&#45;&gt;Writer1 -->
<!-- Creates -->
<g id="node9" class="node">
<title>Creates</title>
<polygon fill="#d3d3d3" stroke="#000000" points="106.183,-468 48.2306,-468 48.2306,-432 106.183,-432 106.183,-468"/>
<text text-anchor="middle" x="77.2068" y="-445.8" font-family="Times,serif" font-size="14.00" fill="#000000">Creates</text>
</g>
<!-- Writer1&#45;&gt;Creates -->
<g id="edge8" class="edge">
<title>Writer1&#45;&gt;Creates</title>
<path fill="none" stroke="#000000" d="M131.7858,-503.8314C123.0539,-495.219 112.4751,-484.7851 102.9645,-475.4048"/>
<polygon fill="#000000" stroke="#000000" points="105.1993,-472.6931 95.6219,-468.1628 100.2838,-477.6769 105.1993,-472.6931"/>
</g>
<!-- Writer1&#45;&gt;Approver1 -->
<!-- Reads -->
<g id="node12" class="node">
<title>Reads</title>
<polygon fill="#d3d3d3" stroke="#000000" points="250.2068,-468 196.2068,-468 196.2068,-432 250.2068,-432 250.2068,-468"/>
<text text-anchor="middle" x="223.2068" y="-445.8" font-family="Times,serif" font-size="14.00" fill="#000000">Reads</text>
</g>
<!-- Writer1&#45;&gt;Reads -->
<g id="edge11" class="edge">
<title>Writer1&#45;&gt;Reads</title>
<path fill="none" stroke="#000000" d="M168.6278,-503.8314C177.3597,-495.219 187.9385,-484.7851 197.4491,-475.4048"/>
<polygon fill="#000000" stroke="#000000" points="200.1298,-477.6769 204.7917,-468.1628 195.2143,-472.6931 200.1298,-477.6769"/>
</g>
<!-- TestFile.TestMethod.received.txt -->
<g id="node10" class="node">
<title>TestFile.TestMethod.received.txt</title>
<polygon fill="#d3d3d3" stroke="#000000" points="122.6211,-396 -.2075,-396 -.2075,-360 122.6211,-360 122.6211,-396"/>
<text text-anchor="middle" x="61.2068" y="-375.6" font-family="Times,serif" font-size="8.00" fill="#000000">TestFile.TestMethod.received.txt</text>
</g>
<!-- Creates&#45;&gt;TestFile.TestMethod.received.txt -->
<g id="edge9" class="edge">
<title>Creates&#45;&gt;TestFile.TestMethod.received.txt</title>
<path fill="none" stroke="#000000" d="M73.1693,-431.8314C71.4581,-424.131 69.4233,-414.9743 67.5216,-406.4166"/>
<polygon fill="#000000" stroke="#000000" points="70.8847,-405.4159 65.2986,-396.4133 64.0514,-406.9344 70.8847,-405.4159"/>
</g>
<!-- TestFile.TestMethod.received.txt&#45;&gt;Approver1 -->
<g id="edge10" class="edge">
<title>TestFile.TestMethod.received.txt&#45;&gt;Approver1</title>
<path fill="none" stroke="#000000" d="M83.6653,-359.8314C94.6273,-350.9632 107.9767,-340.1637 119.8333,-330.5718"/>
<polygon fill="#000000" stroke="#000000" points="122.1823,-333.1734 127.7555,-324.1628 117.7797,-327.7313 122.1823,-333.1734"/>
</g>
<!-- Compares -->
<g id="node14" class="node">
<title>Compares</title>
<polygon fill="#d3d3d3" stroke="#000000" points="186.4688,-252 113.9448,-252 113.9448,-216 186.4688,-216 186.4688,-252"/>
<text text-anchor="middle" x="150.2068" y="-229.8" font-family="Times,serif" font-size="14.00" fill="#000000">Compares</text>
</g>
<!-- Approver1&#45;&gt;Compares -->
<g id="edge14" class="edge">
<title>Approver1&#45;&gt;Compares</title>
<path fill="none" stroke="#000000" d="M144.2544,-287.8314C143.504,-280.131 143.2831,-270.9743 143.5917,-262.4166"/>
<polygon fill="#000000" stroke="#000000" points="147.086,-262.6161 144.2308,-252.4133 140.1003,-262.1697 147.086,-262.6161"/>
</g>
<!-- Approver1&#45;&gt;Compares -->
<!-- TestFile.TestMethod.approved.txt -->
<g id="node13" class="node">
<title>TestFile.TestMethod.approved.txt</title>
<polygon fill="#d3d3d3" stroke="#000000" points="303.7948,-396 178.6188,-396 178.6188,-360 303.7948,-360 303.7948,-396"/>
<text text-anchor="middle" x="241.2068" y="-375.6" font-family="Times,serif" font-size="8.00" fill="#000000">TestFile.TestMethod.approved.txt</text>
</g>
<!-- Reads&#45;&gt;TestFile.TestMethod.approved.txt -->
<g id="edge12" class="edge">
<title>Reads&#45;&gt;TestFile.TestMethod.approved.txt</title>
<path fill="none" stroke="#000000" d="M227.749,-431.8314C229.6952,-424.0463 232.0136,-414.7729 234.1731,-406.1347"/>
<polygon fill="#000000" stroke="#000000" points="237.5736,-406.9636 236.6035,-396.4133 230.7826,-405.2658 237.5736,-406.9636"/>
</g>
<!-- TestFile.TestMethod.approved.txt&#45;&gt;Approver1 -->
<g id="edge13" class="edge">
<title>TestFile.TestMethod.approved.txt&#45;&gt;Approver1</title>
<path fill="none" stroke="#000000" d="M218.2437,-359.8314C207.0353,-350.9632 193.3859,-340.1637 181.2629,-330.5718"/>
<polygon fill="#000000" stroke="#000000" points="183.1765,-327.6229 173.1626,-324.1628 178.8331,-333.1125 183.1765,-327.6229"/>
</g>
<!-- Pass -->
<g id="node15" class="node">
<title>Pass</title>
<polygon fill="#00ff00" stroke="#00ff00" points="258.2068,-252 204.2068,-252 204.2068,-216 258.2068,-216 258.2068,-252"/>
<text text-anchor="middle" x="231.2068" y="-229.8" font-family="Times,serif" font-size="14.00" fill="#000000">Pass</text>
</g>
<!-- Compares&#45;&gt;Pass -->
<g id="edge15" class="edge">
<title>Compares&#45;&gt;Pass</title>
<path fill="none" stroke="#000000" d="M186.5935,-234C189.0442,-234 191.4949,-234 193.9456,-234"/>
<polygon fill="#000000" stroke="#000000" points="194.0206,-237.5001 204.0206,-234 194.0205,-230.5001 194.0206,-237.5001"/>
</g>
<!-- Fail -->
<g id="node16" class="node">
<title>Fail</title>
<polygon fill="#ff0000" stroke="#ff0000" points="177.2068,-180 123.2068,-180 123.2068,-144 177.2068,-144 177.2068,-180"/>
<text text-anchor="middle" x="150.2068" y="-157.8" font-family="Times,serif" font-size="14.00" fill="#000000">Fail</text>
</g>
<!-- Compares&#45;&gt;Fail -->
<g id="edge16" class="edge">
<title>Compares&#45;&gt;Fail</title>
<path fill="none" stroke="#000000" d="M144.2544,-215.8314C143.504,-208.131 143.2831,-198.9743 143.5917,-190.4166"/>
<polygon fill="#000000" stroke="#000000" points="147.086,-190.6161 144.2308,-180.4133 140.1003,-190.1697 147.086,-190.6161"/>
</g>
<!-- Compares&#45;&gt;Fail -->
<!-- Fail&#45;&gt;Reporter1 -->
<g id="edge20" class="edge">
<title>Fail&#45;&gt;Reporter1</title>
<path fill="none" stroke="#000000" d="M144.2544,-143.8314C143.504,-136.131 143.2831,-126.9743 143.5917,-118.4166"/>
<polygon fill="#000000" stroke="#000000" points="147.086,-118.6161 144.2308,-108.4133 140.1003,-118.1697 147.086,-118.6161"/>
</g>
<!-- Fail&#45;&gt;Reporter1 -->
<!-- Open in a Diff Tool -->
<g id="node18" class="node">
<title>Open in a Diff Tool</title>
<polygon fill="#d3d3d3" stroke="#000000" points="213.8949,-36 86.5187,-36 86.5187,0 213.8949,0 213.8949,-36"/>
<text text-anchor="middle" x="150.2068" y="-13.8" font-family="Times,serif" font-size="14.00" fill="#000000">Open in a Diff Tool</text>
</g>
<!-- Reporter1&#45;&gt;Open in a Diff Tool -->
<g id="edge21" class="edge">
<title>Reporter1&#45;&gt;Open in a Diff Tool</title>
<path fill="none" stroke="#000000" d="M150.2068,-71.8314C150.2068,-64.131 150.2068,-54.9743 150.2068,-46.4166"/>
<polygon fill="#000000" stroke="#000000" points="153.7069,-46.4132 150.2068,-36.4133 146.7069,-46.4133 153.7069,-46.4132"/>
</g>
</g>
</svg>
