<?xml version="1.0" encoding="UTF-8" standalone="no"?>
<!DOCTYPE svg PUBLIC "-//W3C//DTD SVG 1.1//EN"
 "http://www.w3.org/Graphics/SVG/1.1/DTD/svg11.dtd">
<!-- Generated by graphviz version 2.40.1 (20161225.0304)
 -->
<!-- Title: G Pages: 1 -->
<svg width="361pt" height="404pt"
 viewBox="0.00 0.00 360.56 404.00" xmlns="http://www.w3.org/2000/svg" xmlns:xlink="http://www.w3.org/1999/xlink">
<g id="graph0" class="graph" transform="scale(1 1) rotate(0) translate(4 400)">
<title>G</title>
<polygon fill="#ffffff" stroke="transparent" points="-4,4 -4,-400 356.5639,-400 356.5639,4 -4,4"/>
<!-- Namer -->
<g id="node1" class="node">
<title>Namer</title>
<polygon fill="#add8e6" stroke="#add8e6" points="128.199,-396 74.0248,-396 74.0248,-360 128.199,-360 128.199,-396"/>
<text text-anchor="middle" x="101.1119" y="-373.8" font-family="Times,serif" font-size="14.00" fill="#000000">Namer</text>
</g>
<!-- TestFile.TestMethod.received.txt -->
<g id="node2" class="node">
<title>TestFile.TestMethod.received.txt</title>
<polygon fill="#d3d3d3" stroke="#000000" points="202.3358,-324 -.112,-324 -.112,-288 202.3358,-288 202.3358,-324"/>
<text text-anchor="middle" x="101.1119" y="-301.8" font-family="Times,serif" font-size="14.00" fill="#000000">TestFile.TestMethod.received.txt</text>
</g>
<!-- Namer&#45;&gt;TestFile.TestMethod.received.txt -->
<g id="edge1" class="edge">
<title>Namer&#45;&gt;TestFile.TestMethod.received.txt</title>
<path fill="none" stroke="#000000" d="M101.1119,-359.8314C101.1119,-352.131 101.1119,-342.9743 101.1119,-334.4166"/>
<polygon fill="#000000" stroke="#000000" points="104.612,-334.4132 101.1119,-324.4133 97.612,-334.4133 104.612,-334.4132"/>
</g>
<!-- Writer -->
<g id="node3" class="node">
<title>Writer</title>
<polygon fill="#add8e6" stroke="#add8e6" points="128.1119,-252 74.1119,-252 74.1119,-216 128.1119,-216 128.1119,-252"/>
<text text-anchor="middle" x="101.1119" y="-229.8" font-family="Times,serif" font-size="14.00" fill="#000000">Writer</text>
</g>
<!-- TestFile.TestMethod.received.txt&#45;&gt;Writer -->
<g id="edge2" class="edge">
<title>TestFile.TestMethod.received.txt&#45;&gt;Writer</title>
<path fill="none" stroke="#000000" d="M101.1119,-287.8314C101.1119,-280.131 101.1119,-270.9743 101.1119,-262.4166"/>
<polygon fill="#000000" stroke="#000000" points="104.612,-262.4132 101.1119,-252.4133 97.612,-262.4133 104.612,-262.4132"/>
</g>
<!-- Approver -->
<g id="node4" class="node">
<title>Approver</title>
<polygon fill="#add8e6" stroke="#add8e6" points="209.7552,-180 140.4686,-180 140.4686,-144 209.7552,-144 209.7552,-180"/>
<text text-anchor="middle" x="175.1119" y="-157.8" font-family="Times,serif" font-size="14.00" fill="#000000">Approver</text>
</g>
<!-- Writer&#45;&gt;Approver -->
<g id="edge3" class="edge">
<title>Writer&#45;&gt;Approver</title>
<path fill="none" stroke="#000000" d="M119.7852,-215.8314C128.6368,-207.219 139.3605,-196.7851 149.0014,-187.4048"/>
<polygon fill="#000000" stroke="#000000" points="151.718,-189.645 156.4445,-180.1628 146.8365,-184.6279 151.718,-189.645"/>
</g>
<!-- Pass -->
<g id="node5" class="node">
<title>Pass</title>
<polygon fill="#00ff00" stroke="#00ff00" points="282.1119,-180 228.1119,-180 228.1119,-144 282.1119,-144 282.1119,-180"/>
<text text-anchor="middle" x="255.1119" y="-157.8" font-family="Times,serif" font-size="14.00" fill="#000000">Pass</text>
</g>
<!-- Approver&#45;&gt;Pass -->
<g id="edge4" class="edge">
<title>Approver&#45;&gt;Pass</title>
<path fill="none" stroke="#000000" d="M209.7994,-162C212.4323,-162 215.0652,-162 217.6981,-162"/>
<polygon fill="#000000" stroke="#000000" points="217.8536,-165.5001 227.8536,-162 217.8536,-158.5001 217.8536,-165.5001"/>
</g>
<!-- Fail -->
<g id="node6" class="node">
<title>Fail</title>
<polygon fill="#ff0000" stroke="#ff0000" points="202.1119,-108 148.1119,-108 148.1119,-72 202.1119,-72 202.1119,-108"/>
<text text-anchor="middle" x="175.1119" y="-85.8" font-family="Times,serif" font-size="14.00" fill="#000000">Fail</text>
</g>
<!-- Approver&#45;&gt;Fail -->
<g id="edge5" class="edge">
<title>Approver&#45;&gt;Fail</title>
<path fill="none" stroke="#000000" d="M175.1119,-143.8314C175.1119,-136.131 175.1119,-126.9743 175.1119,-118.4166"/>
<polygon fill="#000000" stroke="#000000" points="178.612,-118.4132 175.1119,-108.4133 171.612,-118.4133 178.612,-118.4132"/>
</g>
<!-- Reporter -->
<g id="node8" class="node">
<title>Reporter</title>
<polygon fill="#add8e6" stroke="#add8e6" points="207.5895,-36 142.6343,-36 142.6343,0 207.5895,0 207.5895,-36"/>
<text text-anchor="middle" x="175.1119" y="-13.8" font-family="Times,serif" font-size="14.00" fill="#000000">Reporter</text>
</g>
<!-- Fail&#45;&gt;Reporter -->
<g id="edge7" class="edge">
<title>Fail&#45;&gt;Reporter</title>
<path fill="none" stroke="#000000" d="M175.1119,-71.8314C175.1119,-64.131 175.1119,-54.9743 175.1119,-46.4166"/>
<polygon fill="#000000" stroke="#000000" points="178.612,-46.4132 175.1119,-36.4133 171.612,-46.4133 178.612,-46.4132"/>
</g>
<!-- TestFile.TestMethod.approved.txt -->
<g id="node7" class="node">
<title>TestFile.TestMethod.approved.txt</title>
<polygon fill="#d3d3d3" stroke="#000000" points="352.5159,-252 145.7079,-252 145.7079,-216 352.5159,-216 352.5159,-252"/>
<text text-anchor="middle" x="249.1119" y="-229.8" font-family="Times,serif" font-size="14.00" fill="#000000">TestFile.TestMethod.approved.txt</text>
</g>
<!-- TestFile.TestMethod.approved.txt&#45;&gt;Approver -->
<g id="edge6" class="edge">
<title>TestFile.TestMethod.approved.txt&#45;&gt;Approver</title>
<path fill="none" stroke="#000000" d="M230.4386,-215.8314C221.587,-207.219 210.8633,-196.7851 201.2224,-187.4048"/>
<polygon fill="#000000" stroke="#000000" points="203.3873,-184.6279 193.7793,-180.1628 198.5058,-189.645 203.3873,-184.6279"/>
</g>
</g>
</svg>
